<?xml version="1.0" encoding="UTF-8"?>
<svg width="90px" height="90px" viewBox="0 0 90 90" version="1.1" xmlns="http://www.w3.org/2000/svg" xmlns:xlink="http://www.w3.org/1999/xlink">
    <!-- Generator: Sketch 47.1 (45422) - http://www.bohemiancoding.com/sketch -->
    <title>Group</title>
    <desc>Created with Sketch.</desc>
    <defs></defs>
    <g id="Page-1" stroke="none" stroke-width="1" fill="none" fill-rule="evenodd">
        <g id="Work-in-Progress" transform="translate(-675.000000, -405.000000)">
            <g id="Group" transform="translate(675.000000, 405.000000)">
                <rect id="Rectangle-7" fill="#CCCCCC" x="0" y="0" width="90" height="90"></rect>
                <rect id="Rectangle-7" fill="#222222" x="3" y="3" width="26" height="26"></rect>
                <rect id="Rectangle-7" fill="#222222" x="32" y="3" width="26" height="26"></rect>
                <rect id="Rectangle-7" fill="#222222" x="61" y="3" width="26" height="26"></rect>
                <rect id="Rectangle-7" fill="#222222" x="3" y="32" width="26" height="26"></rect>
                <rect id="Rectangle-7" fill="#222222" x="32" y="32" width="26" height="26"></rect>
                <rect id="Rectangle-7" fill="#222222" x="61" y="32" width="26" height="26"></rect>
                <rect id="Rectangle-7" fill="#222222" x="3" y="61" width="26" height="26"></rect>
                <rect id="Rectangle-7" fill="#222222" x="32" y="61" width="26" height="26"></rect>
                <rect id="Rectangle-7" fill="#222222" x="61" y="61" width="26" height="26"></rect>
                <polygon id="Path" fill="#CCCCCC" transform="translate(16.005158, 45.000000) scale(-1, -1) translate(-16.005158, -45.000000) " points="10.4400024 50.1072 17.8301685 39.8928 10.8004983 39.8928 10.8004983 37.16 21.4576586 37.16 21.4576586 39.8928 14.1801475 50.1072 18.923325 50.1072 18.923325 48.741054 21.5703136 48.741054 21.5703136 50.6249679 21.5703136 52.84 10.4400024 52.84"></polygon>
                <polygon id="Path" fill="#CCCCCC" points="68.4300537 50.1072 75.8202198 39.8928 68.4300537 39.8928 68.4300537 37.16 79.5603648 37.16 79.5603648 39.8928 72.1701987 50.1072 76.9133762 50.1072 76.9133762 48.741054 79.5603648 48.741054 79.5603648 49.6249679 79.5603648 52.84 68.4300537 52.84"></polygon>
                <g id="Logo/Letter/P" transform="translate(9.809998, 8.600000)" fill="#CCCCCC">
                    <polygon id="Combined-Shape" points="1.04205869 0.56 3.85843296 0.56 3.85782414 11.0059718 3.85782414 16.24 1.04205869 16.24"></polygon>
                    <path d="M9.90851675,1.34909091 L12.724891,1.34909091 L12.724891,5.38363636 C12.724891,8.18543649 10.3057541,10.4109091 7.3737799,10.4109091 C4.44180568,10.4109091 2.02266879,8.18543649 2.02266879,5.38363636 L2.02266879,1.34909091 L4.83904306,1.34909091 L4.83904306,5.38363636 C4.83904306,6.58841106 5.95052056,7.61090909 7.3737799,7.61090909 C8.79703925,7.61090909 9.90851675,6.58841106 9.90851675,5.38363636 L9.90851675,1.34909091 Z" id="Rectangle" fill-rule="nonzero" transform="translate(7.373780, 5.880000) scale(-1, 1) rotate(90.000000) translate(-7.373780, -5.880000) "></path>
                </g>
                <g id="Logo/Letter/P-Copy" transform="translate(39.369995, 9.720000)" fill-rule="nonzero" fill="#CCCCCC">
                    <path d="M8.44912281,9.9475983e-16 L11.2654971,9.9475983e-16 L11.2654971,10.455 C11.2654971,13.3714221 8.71576393,15.68 5.63274854,15.68 C2.54973315,15.68 4.00230856e-15,13.3714221 4.00230856e-15,10.455 L0,1.98951966e-15 L2.81637427,0 L2.81637427,10.455 C2.81637427,11.7635563 4.04944225,12.88 5.63274854,12.88 C7.21605483,12.88 8.44912281,11.7635563 8.44912281,10.455 L8.44912281,9.9475983e-16 Z" id="Rectangle"></path>
                </g>
                <g id="Logo/Letter/P-Copy-2" transform="translate(67.800049, 8.600000)" fill="#CCCCCC">
                    <polygon id="Path" transform="translate(5.846793, 8.400000) scale(-1, -1) translate(-5.846793, -8.400000) " points="0.281637427 13.5072 7.67180351 3.2928 0.642133333 3.2928 0.642133333 0.56 11.2992936 0.56 11.2992936 3.2928 4.02178246 13.5072 8.76495994 13.5072 8.76495994 12.141054 11.4119485 12.141054 11.4119485 14.0249679 11.4119485 16.24 0.281637427 16.24"></polygon>
                </g>
                <polygon id="Path" fill="#CCCCCC" points="10.4400024 78.1072 17.8301685 67.8928 10.4400024 67.8928 10.4400024 65.16 21.5703136 65.16 21.5703136 67.8928 14.1801475 78.1072 18.923325 78.1072 18.923325 76.741054 21.5703136 76.741054 21.5703136 78.6249679 21.5703136 80.84 10.4400024 80.84"></polygon>
                <polygon id="Path" fill="#CCCCCC" points="47.3904214 76.696 50.1842646 76.696 50.1842646 80.84 39.8200073 80.84 39.8200073 65.16 42.9067535 65.16 42.9067535 78.1072 47.3904214 78.1072"></polygon>
                <polygon id="Path" fill="#CCCCCC" points="68.9000244 65.72 79.0727683 65.72 79.0727683 68.4528 71.7051332 68.4528 71.7051332 72.104 79.0727683 72.104 79.0727683 74.8368 71.7051332 74.8368 71.7051332 78.6672 79.0727683 78.6672 79.0727683 81.4 68.9000244 81.4"></polygon>
                <rect id="Rectangle-9" fill="#CCCCCC" transform="translate(45.000000, 45.000000) rotate(45.000000) translate(-45.000000, -45.000000) " x="43.5" y="25" width="3" height="40"></rect>
            </g>
        </g>
    </g>
</svg>
