<svg xmlns="http://www.w3.org/2000/svg" width="139" height="25" viewBox="0 0 139 25">
    <g fill="none" fill-rule="evenodd">
        <path fill="#CCC" d="M0 0h138.281v25H0z"/>
        <path fill="#222" d="M2.344 2.344h20.313v20.313H2.344zM25 2.344h20.313v20.313H25zM47.656 2.344h20.313v20.313H47.656zM70.313 2.344h20.313v20.313H70.313zM92.969 2.344h20.313v20.313H92.969zM115.625 2.344h20.313v20.313h-20.313z"/>
        <path fill="#CCC" d="M76.117 16.49l5.774-7.98h-5.774V6.375h8.696V8.51l-5.774 7.98h3.706v-1.067h2.068v3.202h-8.696zM9.665 6.375v-.024h3.152c2.189 0 3.927 1.89 3.927 4.18s-1.738 4.18-3.927 4.18h-2.36v3.914h-2.2V6.375h1.408zm.793 2.176v3.96h2.359c.94 0 1.74-.868 1.74-1.98s-.8-1.98-1.74-1.98h-2.359z"/>
        <path fill="#CCC" fill-rule="nonzero" d="M37.359 6.375h2.2v8.168c0 2.278-1.992 4.082-4.4 4.082-2.41 0-4.401-1.804-4.401-4.082V6.375h2.2v8.168c0 1.022.963 1.895 2.2 1.895s2.2-.873 2.2-1.895V6.375z"/>
        <path fill="#CCC" d="M62.156 8.51l-5.773 7.98h5.492v2.135h-8.326V16.49l5.685-7.98H55.53v1.067H53.46V6.375h8.695zM105.003 15.393h2.183v3.237h-8.097V6.38h2.411v10.115h3.503zM121.875 6.38h7.947v2.135h-5.756v2.853h5.756v2.135h-5.756v2.992h5.756v2.135h-7.947z"/>
    </g>
</svg>
